<svg width="15" height="22" viewBox="0 0 15 22" fill="none" xmlns="http://www.w3.org/2000/svg">
<g clip-path="url(#clip0_36_14)">
<path fill-rule="evenodd" clip-rule="evenodd" d="M0.903259 8.67617C0.937052 8.39701 2.46981 8.76168 5.27464 9.67461L8.60567 7.82611L10.2471 11.4477C11.9608 12.1418 14.4398 12.9919 14.1936 13.2811L13.2691 14.1714L11.1933 14.9435L8.65154 15.4138L8.68774 15.9243L8.21223 16.8398L9.40464 20.997L6.81464 21.2711H1.89291L3.98085 16.7769L4.22223 14.9334L4.28257 13.9224C3.0974 12.7756 2.11016 11.4577 1.28222 10.0116C1.25085 9.95378 1.23636 9.93617 1.21947 9.87078C1.18567 9.74 1.14947 9.60671 1.11567 9.47342C1.04326 9.20683 0.973259 8.94276 0.903259 8.67617Z" stroke="#E2E2EF" stroke-width="0.6"/>
<path fill-rule="evenodd" clip-rule="evenodd" d="M1.06982 8.82706C2.97431 9.83304 5.12741 10.6529 7.30948 11.498C9.56155 12.3279 11.915 13.0069 13.9957 13.3364L13.1243 14.0708L11.1426 14.8328L8.51638 15.3207L8.56707 15.8866L8.05534 16.875L9.17776 20.8964L6.76155 21.1303L2.20431 21.1253L4.215 16.7769L4.44431 14.8504L4.4781 13.8545C3.32672 12.7026 2.34189 11.3772 1.46086 9.99652C1.42465 9.93867 1.40293 9.91604 1.38362 9.84813C1.34741 9.72239 1.30638 9.59915 1.27017 9.4734C1.26293 9.44825 1.25327 9.42562 1.24603 9.40047C1.19534 9.23448 1.14465 9.07101 1.09396 8.90502C1.08672 8.87987 1.07948 8.85221 1.06982 8.82706Z" stroke="#E2E2EF" stroke-width="0.6"/>
<path fill-rule="evenodd" clip-rule="evenodd" d="M7.53396 8.65607C7.60879 8.79439 7.69569 8.92517 7.80672 9.04086L6.95707 10.2103L5.63431 9.77523L7.53396 8.65607Z" stroke="#E2E2EF" stroke-width="0.6"/>
<path fill-rule="evenodd" clip-rule="evenodd" d="M7.88396 9.11127C7.99499 9.29737 8.19051 9.35019 8.45844 9.29486L8.41017 10.7309L7.13327 10.2606L7.88396 9.11127Z" stroke="#E2E2EF" stroke-width="0.6"/>
<path fill-rule="evenodd" clip-rule="evenodd" d="M8.60084 9.2546C8.74808 9.23448 8.88084 9.17664 8.96532 9.12131L9.8898 11.259L8.54291 10.7787L8.60084 9.2546Z" stroke="#E2E2EF" stroke-width="0.6"/>
<path d="M2.58566 9.84311C2.57842 10.2103 2.60739 10.8089 2.72808 11.176" stroke="#E2E2EF" stroke-width="0.6"/>
<path d="M5.82016 11.1559C5.82982 11.8652 5.92154 12.67 6.15568 13.6206" stroke="#E2E2EF" stroke-width="0.6"/>
<path d="M7.64499 11.8953L6.83636 13.7816" stroke="#E2E2EF" stroke-width="0.6"/>
<path d="M9.3443 12.7932C9.11016 13.3138 8.72395 13.7891 8.22913 14.2317" stroke="#E2E2EF" stroke-width="0.6"/>
<path d="M11.0436 13.2006C10.7733 13.5929 10.3653 13.9123 9.87292 14.1865" stroke="#E2E2EF" stroke-width="0.6"/>
<path d="M12.3519 13.5049L11.7098 14.101" stroke="#E2E2EF" stroke-width="0.6"/>
<path d="M4.06534 10.5599C3.99534 11.1836 4.03879 11.8073 4.24638 12.431" stroke="#E2E2EF" stroke-width="0.6"/>
<path d="M4.6929 14.0532C5.78394 14.5989 6.97152 15.0566 8.28463 15.4012" stroke="#E2E2EF" stroke-width="0.138886"/>
<path fill-rule="evenodd" clip-rule="evenodd" d="M6.08084 2.51197C6.11464 2.517 6.17739 2.48682 6.21119 2.47173L6.66015 2.30323C6.8605 2.24287 7.05601 2.16491 7.25877 2.11712C7.53153 2.05173 7.80188 1.98383 8.07705 1.93605C9.87532 1.63173 11.4443 2.11712 12.6415 3.72419C12.6584 3.74682 12.6681 3.75688 12.6826 3.77952C12.6995 3.79964 12.7067 3.81473 12.7236 3.83485L12.9553 4.18443C13.0736 4.36551 13.2933 4.75784 13.385 4.96658C13.3946 4.99173 13.397 5.00179 13.4115 5.02694C13.4381 5.07473 13.4453 5.10994 13.4719 5.15521C13.5274 5.25329 13.5612 5.36395 13.6167 5.46455C13.6505 5.52491 13.6698 5.59784 13.7084 5.6582C13.7519 5.64814 13.7905 5.62048 13.8364 5.6079L14.7319 5.24072C14.7222 5.19796 14.686 5.1376 14.6691 5.09485L14.5098 4.72515C14.4953 4.69748 14.4857 4.68742 14.4712 4.65473L14.1067 3.94048L13.677 3.25137L13.4308 2.91437C13.2039 2.62515 12.9553 2.35856 12.6874 2.10706C12.6681 2.08946 12.6464 2.06934 12.6222 2.0467C12.3277 1.76754 11.9802 1.55377 11.635 1.34754L11.2584 1.1564L10.9881 1.04323C10.935 1.02563 10.8843 1.00802 10.8336 0.995446C10.7612 0.975327 10.7033 0.947662 10.6308 0.930057C10.4715 0.887303 10.3195 0.844548 10.1553 0.814369L9.68946 0.743949C9.28636 0.696165 8.87843 0.696165 8.47532 0.731375L8.13739 0.766584C8.07946 0.771614 8.0336 0.784189 7.97808 0.789219C7.87188 0.799279 7.76084 0.826943 7.65705 0.847063L7.49291 0.879758C7.46153 0.884788 7.44705 0.889818 7.41567 0.897363C7.13084 0.967782 6.83877 1.03317 6.55877 1.13628L6.41153 1.18658C6.35843 1.20419 6.31257 1.22179 6.25705 1.2394C6.20636 1.25449 6.1605 1.27461 6.10981 1.29473C5.9867 1.34503 5.85395 1.37521 5.73084 1.42802C5.70429 1.43808 5.67532 1.44814 5.64877 1.45317C5.66084 1.51102 5.72601 1.64934 5.75257 1.71473C5.77188 1.76 5.78877 1.79772 5.80808 1.84299L5.86119 1.98131C5.90464 2.10455 6.03498 2.44658 6.08084 2.51197Z" fill="#E2E2EF"/>
<path fill-rule="evenodd" clip-rule="evenodd" d="M6.89672 4.28755L7.07051 4.23222C7.295 4.1618 7.74638 3.99833 7.97086 3.9606C8.09638 3.93797 8.1712 3.91282 8.34741 3.88515L8.73603 3.84994C9.12224 3.83234 9.31293 3.85497 9.67741 3.93545C9.83431 3.97066 9.80776 3.97821 9.91155 4.0109C10.1795 4.09389 10.3098 4.18192 10.5319 4.32779C10.7009 4.43593 10.9326 4.64719 11.0653 4.79809C11.1064 4.84587 11.1474 4.89365 11.1909 4.94647C11.3719 5.15521 11.5722 5.4897 11.7026 5.72862L11.8281 5.97258C11.845 6.00276 11.8522 6.02539 11.8667 6.05809C11.8812 6.09581 11.8933 6.10839 11.9078 6.14359C11.9391 6.2115 11.9874 6.35234 12.0188 6.40012C12.0453 6.40515 12.2264 6.32467 12.2722 6.30455L12.9843 6.01533C13.0084 6.00527 13.0302 6.00527 13.0495 5.99018L12.8371 5.49725C12.726 5.24324 12.3881 4.6824 12.2578 4.50635C11.9584 4.09892 11.8112 3.92288 11.4057 3.57581C11.2802 3.46767 10.9809 3.25641 10.8215 3.17844C10.7829 3.16084 10.7226 3.13066 10.684 3.10803L10.3991 2.97222C10.1578 2.89677 10.0974 2.86407 9.82707 2.79868C9.65569 2.75844 9.45534 2.73078 9.28638 2.7182C8.70948 2.67042 8.14707 2.72826 7.58465 2.87162C7.50982 2.88922 7.43258 2.90934 7.35776 2.93449L6.525 3.21617C6.49362 3.22623 6.49603 3.2212 6.47189 3.2388L6.63845 3.66383C6.63845 3.66635 6.64086 3.67138 6.64327 3.67389L6.65776 3.71162C6.69155 3.80216 6.87017 4.24731 6.89672 4.28755Z" fill="#E2E2EF"/>
<path fill-rule="evenodd" clip-rule="evenodd" d="M7.83325 6.05809C8.04083 5.98264 8.28704 5.89964 8.50428 5.86192C8.82049 5.8091 9.04497 5.81413 9.37807 5.95246C9.66773 6.07318 9.88256 6.34982 10.0274 6.58371C10.0805 6.67425 10.1843 6.87042 10.2205 6.96599C10.2326 6.99617 10.2422 7.0188 10.2567 7.04395C10.3436 7.02635 10.5415 6.92827 10.6405 6.89809L11.2898 6.6315L11.1522 6.32216C11.1401 6.29449 11.1329 6.28946 11.1208 6.2618C11.0991 6.21653 11.0798 6.1788 11.0557 6.13605C10.9229 5.89461 10.8384 5.77138 10.667 5.56264C10.5464 5.41677 10.3339 5.2206 10.1746 5.10994C9.62911 4.7327 9.09325 4.65222 8.45118 4.71258C8.4029 4.71761 8.36428 4.72767 8.31842 4.7327L7.9829 4.80312C7.91532 4.82072 7.44704 4.95653 7.40601 5.01186C7.42049 5.08479 7.60152 5.4721 7.64256 5.59533L7.83325 6.05809Z" fill="#E2E2EF"/>
</g>
<defs>
<clipPath id="clip0_36_14">
<rect width="14" height="21" fill="white" transform="translate(0.823608 0.5)"/>
</clipPath>
</defs>
</svg>
