<?xml version="1.0" encoding="UTF-8"?>
<!DOCTYPE svg PUBLIC "-//W3C//DTD SVG 1.1//EN" "http://www.w3.org/Graphics/SVG/1.1/DTD/svg11.dtd">
<!-- Creator: CorelDRAW X8 -->
<svg xmlns="http://www.w3.org/2000/svg" xml:space="preserve" width="5.8in" height="8.35in" version="1.1" style="shape-rendering:geometricPrecision; text-rendering:geometricPrecision; image-rendering:optimizeQuality; fill-rule:evenodd; clip-rule:evenodd"
viewBox="0 0 5800 8350"
 xmlns:xlink="http://www.w3.org/1999/xlink">
 <defs>
  <style type="text/css">
   <![CDATA[
    .str0 {stroke:#373435;stroke-width:138.886}
    .str1 {stroke:#373435;stroke-width:138.886}
    .fil0 {fill:none}
    .fil1 {fill:black}
   ]]>
  </style>
 </defs>
 <g id="Layer_x0020_1">
  <metadata id="CorelCorpID_0Corel-Layer"/>
  <g id="_2891449016752">
   <path class="fil0 str0" d="M33 3251c14,-111 649,34 1811,397l1380 -735 680 1440c710,276 1737,614 1635,729l-383 354 -860 307 -1053 187 15 203 -197 364 494 1653 -1073 109 -2039 0 865 -1787 100 -733 25 -402c-491,-456 -900,-980 -1243,-1555 -13,-23 -19,-30 -26,-56 -14,-52 -29,-105 -43,-158 -30,-106 -59,-211 -88,-317z"/>
   <path class="fil0 str1" d="M102 3311c789,400 1681,726 2585,1062 933,330 1908,600 2770,731l-361 292 -821 303 -1088 194 21 225 -212 393 465 1599 -1001 93 -1888 -2 833 -1729 95 -766 14 -396c-477,-458 -885,-985 -1250,-1534 -15,-23 -24,-32 -32,-59 -15,-50 -32,-99 -47,-149 -3,-10 -7,-19 -10,-29 -21,-66 -42,-131 -63,-197 -3,-10 -6,-21 -10,-31z"/>
   <path class="fil0 str0" d="M2780 3243c31,55 67,107 113,153l-352 465 -548 -173 787 -445z"/>
   <path class="fil0 str0" d="M2925 3424c46,74 127,95 238,73l-20 571 -529 -187 311 -457z"/>
   <path class="fil0 str0" d="M3222 3481c61,-8 116,-31 151,-53l383 850 -558 -191 24 -606z"/>
   <path class="fil0 str0" d="M730 3715c-3,146 9,384 59,530"/>
   <path class="fil0 str0" d="M2070 4237c4,282 42,602 139,980"/>
   <line class="fil0 str0" x1="2826" y1="4531" x2="2491" y2= "5281" />
   <path class="fil0 str0" d="M3530 4888c-97,207 -257,396 -462,572"/>
   <path class="fil0 str0" d="M4234 5050c-112,156 -281,283 -485,392"/>
   <line class="fil0 str0" x1="4776" y1="5171" x2="4510" y2= "5408" />
   <path class="fil0 str0" d="M1343 4000c-29,248 -11,496 75,744"/>
  </g>
  <path class="fil0 str0" d="M1603 5389c452,217 944,399 1488,536"/>
  <path class="fil1" d="M2178 800c14,2 40,-10 54,-16l186 -67c83,-24 164,-55 248,-74 113,-26 225,-53 339,-72 745,-121 1395,72 1891,711 7,9 11,13 17,22 7,8 10,14 17,22l96 139c49,72 140,228 178,311 4,10 5,14 11,24 11,19 14,33 25,51 23,39 37,83 60,123 14,24 22,53 38,77 18,-4 34,-15 53,-20l371 -146c-4,-17 -19,-41 -26,-58l-66 -147c-6,-11 -10,-15 -16,-28l-151 -284 -178 -274 -102 -134c-94,-115 -197,-221 -308,-321 -8,-7 -17,-15 -27,-24 -122,-111 -266,-196 -409,-278l-156 -76 -112 -45c-22,-7 -43,-14 -64,-19 -30,-8 -54,-19 -84,-26 -66,-17 -129,-34 -197,-46l-193 -28c-167,-19 -336,-19 -503,-5l-140 14c-24,2 -43,7 -66,9 -44,4 -90,15 -133,23l-68 13c-13,2 -19,4 -32,7 -118,28 -239,54 -355,95l-61 20c-22,7 -41,14 -64,21 -21,6 -40,14 -61,22 -51,20 -106,32 -157,53 -11,4 -23,8 -34,10 5,23 32,78 43,104 8,18 15,33 23,51l22 55c18,49 72,185 91,211z"/>
  <path class="fil1" d="M2516 1506l72 -22c93,-28 280,-93 373,-108 52,-9 83,-19 156,-30l161 -14c160,-7 239,2 390,34 65,14 54,17 97,30 111,33 165,68 257,126 70,43 166,127 221,187 17,19 34,38 52,59 75,83 158,216 212,311l52 97c7,12 10,21 16,34 6,15 11,20 17,34 13,27 33,83 46,102 11,2 86,-30 105,-38l295 -115c10,-4 19,-4 27,-10l-88 -196c-46,-101 -186,-324 -240,-394 -124,-162 -185,-232 -353,-370 -52,-43 -176,-127 -242,-158 -16,-7 -41,-19 -57,-28l-118 -54c-100,-30 -125,-43 -237,-69 -71,-16 -154,-27 -224,-32 -239,-19 -472,4 -705,61 -31,7 -63,15 -94,25l-345 112c-13,4 -12,2 -22,9l69 169c0,1 1,3 2,4l6 15c14,36 88,213 99,229z"/>
  <path class="fil1" d="M2904 2210c86,-30 188,-63 278,-78 131,-21 224,-19 362,36 120,48 209,158 269,251 22,36 65,114 80,152 5,12 9,21 15,31 36,-7 118,-46 159,-58l269 -106 -57 -123c-5,-11 -8,-13 -13,-24 -9,-18 -17,-33 -27,-50 -55,-96 -90,-145 -161,-228 -50,-58 -138,-136 -204,-180 -226,-150 -448,-182 -714,-158 -20,2 -36,6 -55,8l-139 28c-28,7 -222,61 -239,83 6,29 81,183 98,232l79 184z"/>
 </g>
</svg>
