<?xml version="1.0" encoding="UTF-8"?>
<!DOCTYPE svg PUBLIC "-//W3C//DTD SVG 1.1//EN" "http://www.w3.org/Graphics/SVG/1.1/DTD/svg11.dtd">
<!-- Creator: CorelDRAW X8 -->
<svg xmlns="http://www.w3.org/2000/svg" xml:space="preserve" width="2.35in" height="1.41in" version="1.1" style="shape-rendering:geometricPrecision; text-rendering:geometricPrecision; image-rendering:optimizeQuality; fill-rule:evenodd; clip-rule:evenodd"
viewBox="0 0 2350 1410"
 xmlns:xlink="http://www.w3.org/1999/xlink">
 <defs>
  <style type="text/css">
   <![CDATA[
    .fil0 {fill:black}
    .fil2 {fill:#6E6E6E}
    .fil1 {fill:#EEEEEE}
   ]]>
  </style>
 </defs>
 <g id="Layer_x0020_1">
  <metadata id="CorelCorpID_0Corel-Layer"/>
  <g id="_1787248035200">
   <path class="fil0" d="M144 437l-23 98 -27 120 -32 168 -17 103 -11 95c-5,55 -9,113 -5,169l2 30c22,146 211,240 376,154 62,-33 90,-112 118,-186 28,-72 52,-150 77,-226 36,-105 73,9 209,0 46,-3 83,-19 113,-40 34,-24 87,-16 137,-16 101,0 202,1 303,0 83,0 57,11 115,37 30,13 49,17 81,17 15,0 29,1 43,1 18,0 25,-6 40,-11 19,-7 30,-9 47,-21 6,-3 20,-13 26,-14 6,0 14,5 20,7 7,3 11,6 15,13 2,2 4,5 5,8 2,3 3,5 4,8 7,17 10,31 18,50l37 119c37,49 45,215 167,265 200,80 309,-73 317,-77 27,-56 34,-58 38,-124 4,-46 -3,-94 -3,-140 0,-29 -8,-54 -10,-83 -4,-41 -7,-78 -14,-119 -7,-38 -15,-76 -23,-115 -29,-146 -82,-416 -147,-528 -22,-37 -92,-145 -123,-161 -62,-34 -164,-36 -235,-11 -45,16 0,32 -65,48 -61,15 -162,-7 -218,7l0 159c6,195 10,164 -394,163 -48,0 -95,0 -142,0 -142,0 -85,-104 -95,-322 -42,-7 -110,-2 -155,-2 -113,0 -99,-27 -110,-42 -15,-18 -96,-28 -124,-28 -41,0 -95,12 -127,26 -25,12 -6,8 -40,38 -17,15 -81,116 -93,138 -24,43 -68,169 -75,225z"/>
   <path class="fil1" d="M1871 140c-138,20 -243,132 -227,292 12,131 138,246 290,227 134,-16 247,-136 229,-291 -15,-131 -140,-250 -292,-228z"/>
   <path class="fil1" d="M237 269c-60,109 -41,233 40,315 90,90 239,106 349,20 192,-148 87,-481 -182,-465 -16,1 -40,4 -55,10 -12,5 -24,11 -36,16 -9,3 -15,5 -23,10 -24,13 -45,31 -62,53 -4,5 -8,9 -13,15 -9,8 -12,16 -18,26z"/>
   <path class="fil0" d="M1476 344c1,-65 1,-131 1,-196 -1,-73 15,-116 -69,-116 -121,1 -247,-3 -367,0 -179,3 -149,-41 -151,273 0,54 6,77 63,77l426 0c57,0 76,10 97,-38z"/>
   <path class="fil1" d="M1529 658c-38,13 -59,26 -78,57 -62,104 32,239 157,201 63,-20 113,-89 88,-170 -19,-61 -87,-115 -167,-88z"/>
   <path class="fil0" d="M480 398c8,20 27,32 42,44 21,18 22,26 59,27 81,1 113,17 114,-66 0,-88 -18,-73 -104,-73 -37,0 -45,2 -66,21 -13,12 -38,35 -45,47z"/>
   <path class="fil0" d="M531 593c0,-59 8,-87 -20,-120 -12,-14 -29,-41 -52,-47 -12,7 -45,44 -56,58 -17,23 -11,72 -10,105 0,53 16,51 66,51 44,-1 72,5 72,-47z"/>
   <path class="fil0" d="M393 251c0,50 -6,59 25,90 46,47 34,63 86,4 32,-37 33,-71 27,-138 -3,-29 -17,-36 -47,-37 -89,-2 -91,-5 -91,81z"/>
   <path class="fil0" d="M439 398c-10,-19 -29,-29 -44,-44 -23,-21 -24,-24 -63,-24 -82,0 -106,-18 -106,68 0,87 19,71 106,71 35,0 49,-8 66,-25 13,-13 36,-33 41,-46z"/>
   <path class="fil0" d="M1721 323c-103,32 -51,171 41,145 93,-27 53,-174 -41,-145z"/>
   <path class="fil0" d="M1879 490c-95,39 -38,176 55,140 87,-34 40,-179 -55,-140z"/>
   <path class="fil0" d="M2058 322c-93,23 -65,171 37,146 92,-22 62,-170 -37,-146z"/>
   <path class="fil0" d="M1875 164c-97,47 -24,174 62,136 87,-38 31,-181 -62,-136z"/>
   <path class="fil1" d="M2061 349c-67,27 -26,114 35,90 55,-22 23,-114 -35,-90z"/>
   <path class="fil1" d="M1704 437l75 -1 2 -80 -79 0c-2,25 -4,56 2,81z"/>
   <path class="fil1" d="M749 149c-3,5 -32,152 43,151 74,-1 41,-159 41,-159 -22,-38 -65,-39 -82,-1l-2 9z"/>
   <path class="fil1" d="M1575 300c-56,0 -46,-65 -46,-118 0,-35 5,-66 47,-70 21,-2 28,10 37,27 9,18 10,32 11,52 0,5 0,11 0,17l1 0c0,24 -1,59 -16,78 -9,11 -21,14 -34,14z"/>
   <path class="fil0" d="M2061 359c-14,7 -34,17 -23,49 7,19 29,31 53,22 44,-15 22,-94 -30,-71z"/>
   <path class="fil1" d="M1856 267l98 -1c-5,-19 -34,-67 -47,-84 -15,9 -47,70 -51,85z"/>
   <polygon class="fil0" points="1772,423 1771,363 1712,362 1710,423 "/>
   <path class="fil1" d="M1072 798l2 29c0,1 1,2 1,4 17,-7 6,2 13,-21 3,-12 -1,-3 4,-10l3 -10c39,-2 81,7 106,-11 9,-41 -12,-40 -47,-40 -23,1 -70,-3 -84,6 15,7 44,4 64,4 35,0 51,-9 48,25 -46,18 -100,-14 -110,24zm20 2c-5,7 -1,-2 -4,10 -7,23 4,14 -13,21 0,-2 -1,-3 -1,-4l-2 -29 -6 20c1,19 2,13 14,19 18,-12 12,-12 12,-37z"/>
   <path class="fil1" d="M1237 819c-28,10 -45,-5 -64,9 13,7 67,9 80,-3 28,-28 -23,-75 43,-76 15,0 20,3 32,-4 -12,-9 -62,-10 -77,0 -18,13 -3,49 -14,74z"/>
   <path class="fil1" d="M1896 559c-12,18 -29,21 -27,43 17,-7 27,-22 38,-31l30 27c18,9 4,2 9,0 2,-1 13,4 -9,-19 -8,-8 -12,-12 -18,-20 9,-10 25,-21 31,-38 -22,-2 -27,15 -43,27 -7,-5 -10,-8 -17,-16 -11,-11 -7,-14 -25,-11 5,14 23,28 31,38z"/>
   <path class="fil0" d="M1872 257l68 -1 -33 -57c-14,11 -28,39 -35,58z"/>
   <path class="fil2" d="M1704 437c-6,-25 -4,-56 -2,-81l79 0c-5,-7 7,-7 -40,-6 -14,0 -27,0 -42,1 -6,18 -4,23 -4,42 0,61 0,37 9,44z"/>
   <path class="fil2" d="M1772 423l-62 0 2 -61c-8,9 -6,-15 -7,16l1 49 50 2c31,-1 8,0 16,-6z"/>
   <path class="fil1" d="M758 658c-38,13 -59,26 -78,57 -62,104 32,239 157,201 64,-20 114,-89 89,-170 -19,-61 -88,-115 -168,-88z"/>
  </g>
 </g>
</svg>
